<?xml version="1.0" encoding="UTF-8" standalone="no"?>
<!-- Created with Inkscape (http://www.inkscape.org/) -->

<svg
   width="256mm"
   height="256mm"
   viewBox="0 0 256 256"
   version="1.1"
   id="svg1"
   inkscape:version="1.4.2 (ebf0e940d0, 2025-05-08)"
   sodipodi:docname="tv-joyn1.svg"
   xml:space="preserve"
   xmlns:inkscape="http://www.inkscape.org/namespaces/inkscape"
   xmlns:sodipodi="http://sodipodi.sourceforge.net/DTD/sodipodi-0.dtd"
   xmlns="http://www.w3.org/2000/svg"
   xmlns:svg="http://www.w3.org/2000/svg"
   xmlns:rdf="http://www.w3.org/1999/02/22-rdf-syntax-ns#"
   xmlns:cc="http://creativecommons.org/ns#"><sodipodi:namedview
     id="namedview1"
     pagecolor="#ffffff"
     bordercolor="#000000"
     borderopacity="0.25"
     inkscape:showpageshadow="2"
     inkscape:pageopacity="0.0"
     inkscape:pagecheckerboard="0"
     inkscape:deskcolor="#d1d1d1"
     inkscape:document-units="mm"
     inkscape:zoom="0.1606876"
     inkscape:cx="-205.36743"
     inkscape:cy="2237.2603"
     inkscape:current-layer="g2"
     showguides="true" /><defs
     id="defs1" /><metadata
     id="metadata1"><rdf:RDF><cc:Work
         rdf:about=""><cc:license
           rdf:resource="http://creativecommons.org/publicdomain/zero/1.0/" /></cc:Work><cc:License
         rdf:about="http://creativecommons.org/publicdomain/zero/1.0/"><cc:permits
           rdf:resource="http://creativecommons.org/ns#Reproduction" /><cc:permits
           rdf:resource="http://creativecommons.org/ns#Distribution" /><cc:permits
           rdf:resource="http://creativecommons.org/ns#DerivativeWorks" /></cc:License></rdf:RDF></metadata><rect
     style="fill:#000000;fill-opacity:1;fill-rule:evenodd;stroke:none;stroke-width:0.899999;stroke-linecap:square;stroke-dasharray:none;stroke-opacity:1;paint-order:stroke fill markers"
     id="rect20"
     width="252.07108"
     height="251.48892"
     x="2.3286011"
     y="2.9107513"
     rx="16.299999" /><style
     type="text/css"
     id="style1">
	.st0{fill:#D13424;}
	.st1{fill:#FEFEFE;}
</style><g
     transform="matrix(2.702543,0,0,2.702543,40.174459,49.622426)"
     id="g2"><path
       d="m 39.545128,57.069326 c 7.19426,-2.429657 12.701568,-7.296953 15.815438,-13.977487 2.264527,-4.858337 2.338254,-5.620976 2.362333,-24.434086 L 57.744129,1.6268405 H 38.91027 20.0764 L 19.975803,8.9505808 19.875207,16.274317 H 12.652019 5.4288237 v 9.710395 c 0,10.597922 0.2442991,12.440283 2.2379268,16.872912 3.3732355,7.500258 10.5074935,13.206943 18.7097885,14.965906 2.759331,0.591708 10.49441,0.148642 13.167926,-0.754229 z M 27.937655,42.46033 C 25.886589,41.6964 23.7947,40.143369 22.719666,38.586577 20.722612,35.694557 20.633198,35.136179 20.633198,25.556783 v -8.911638 h 10.939256 10.939265 v 9.02592 9.025908 l -1.133943,2.269306 c -1.211082,2.423587 -2.493647,3.7146 -4.941392,4.973943 -1.949036,1.002793 -6.461527,1.278917 -8.498681,0.520099 z"
       style="fill:#ffffff;fill-opacity:1;stroke-width:11.8366"
       id="path1-2" /></g></svg>
